<svg id="Layer_1" data-name="Layer 1" xmlns="http://www.w3.org/2000/svg" viewBox="0 0 50 50">
  <title>linkedin</title>
  <path d="M306.16,370.91a25,25,0,1,0,25,25A25,25,0,0,0,306.16,370.91Zm-8.33,40.63h-7.3V390.71h7.3Zm-3.65-24a3.65,3.65,0,1,1,3.65-3.65A3.64,3.64,0,0,1,294.18,387.58Zm27.6,24h-6.25V401.39c0-2.42-.26-5.54-3.58-5.54s-3.89,2.64-3.89,5.36v10.33H302V390.71h5.81v2.81h.09c.87-1.64,3-2.81,6.13-2.81,6.55,0,7.76,3.76,7.76,9.38Z" transform="translate(-281.16 -370.91)" fill="#fff"/>
</svg>
