<svg id="Layer_1" data-name="Layer 1" xmlns="http://www.w3.org/2000/svg" viewBox="0 0 50 50">
  <title>stackoverflow</title>
  <path d="M306.49,370.91a25,25,0,1,0,25,25A25,25,0,0,0,306.49,370.91Zm-4.11,17.72,10.83,6.27-1.37,2.26L301,390.9Zm-2.9,6.08,12.14,3.2-.7,2.54-12.14-3.2Zm-1.2,5.51,12.51,1.13-.24,2.62L298,402.84Zm-.36,4.51h12.57v2.64H297.92Zm16.86,6.18s0,.62,0,.62H294.64s-.63,0-.63,0h0V398.69h2.15v10.77h16.49V398.69h2.15Zm-1.14-16.38-7.08-10.19,2.22-1.48,7.08,10.19Zm2.7-1.64-2.15-12.15,2.65-.45L319,392.44Z" transform="translate(-281.49 -370.91)" fill="#fff"/>
</svg>
